<?xml version="1.0" encoding="utf-8"?>
<!-- Generator: Adobe Illustrator 21.1.0, SVG Export Plug-In . SVG Version: 6.00 Build 0)  -->
<svg version="1.1" id="Layer_1" xmlns="http://www.w3.org/2000/svg" xmlns:xlink="http://www.w3.org/1999/xlink" x="0px" y="0px"
	 viewBox="0 0 750 869" style="enable-background:new 0 0 750 869;" xml:space="preserve">
<style type="text/css">
	.st0{fill:#F24125;}
	.st1{fill:#FCBC1D;}
	.st2{opacity:0.25;enable-background:new    ;}
	.st3{fill:#333333;}
	.st4{fill:#FFFFFF;}
	.st5{fill:#F2F2F2;}
	.st6{fill:#20505B;}
	.st7{fill:#1AA5E2;}
</style>
<g>
	<polyline class="st0" points="591.8,340.3 633.7,267.5 677.9,293 657.9,327.6 613.7,302.2 	"/>
	<path class="st1" d="M640.9,356.6c16,16,28.9,35.2,37.6,56.5c8.1,19.8,12.5,41.5,12.5,64.3c0,12.3-1.3,24.3-3.8,35.9
		c-7.1,33.3-24,63-47.4,86c-11.3,11.1-24.2,20.7-38.3,28.3c-24.1,13.1-51.8,20.5-81.1,20.5c-2.9,0-5.7-0.1-8.5-0.2
		c-53.3-2.6-100.1-29.7-129.6-70.2c-20.5-28.1-32.5-62.8-32.5-100.3c0-1.9,0-3.7,0.1-5.6c1.2-38.3,15.1-73.4,37.5-101.3
		c28.7-35.7,71.5-59.6,119.9-63.3c4.3-0.3,8.7-0.5,13.1-0.5c38.4,0,73.8,12.7,102.4,34.1C629.1,345.6,635.2,350.9,640.9,356.6z"/>
	<path class="st2" d="M534.9,638.7c-20-7-38.2-17.7-54-31.2c-36.6-31.3-59.8-77.8-59.8-129.7c0-46,18.2-87.8,47.9-118.5
		c16.3-16.9,36.1-30.5,58.2-39.5c9.2-3.8,18.8-6.7,28.8-8.9c-11.5-2.5-23.5-3.8-35.7-3.8c-22.8,0-44.6,4.5-64.5,12.6
		c-22.1,9-41.9,22.6-58.2,39.5c-29.6,30.7-47.9,72.5-47.9,118.5c0,51.9,23.2,98.4,59.8,129.7c15.8,13.5,34,24.2,54,31.2
		c17.8,6.3,36.9,9.7,56.9,9.7c12.3,0,24.2-1.3,35.7-3.8C548.8,643.1,541.8,641.1,534.9,638.7z"/>
	<g>
		<path class="st2" d="M600.4,437.2c-2.4-11.9,1.1-23.1,8.3-28.6c1.9-1.5,4.1-2.5,6.6-3c11.3-2.3,23,8,26.1,23.1
			c3.1,15.1-3.5,29.2-14.9,31.5c-3.6,0.8-7.3,0.2-10.7-1.4C608.6,455.6,602.5,447.5,600.4,437.2z"/>
		<path class="st1" d="M600.4,437.2c-2.4-11.9,1.1-23.1,8.3-28.6c7.2,3.4,13.3,11.5,15.4,21.7c2.4,11.9-1.1,23.1-8.3,28.6
			C608.6,455.6,602.5,447.5,600.4,437.2z"/>
		<path class="st3" d="M623.3,465.7c-3.2,0-6.5-0.7-9.6-2.2c-2.5-1.2-3.6-4.2-2.4-6.7c1.2-2.5,4.2-3.6,6.7-2.4
			c2.5,1.2,5.1,1.5,7.6,1c3.9-0.8,7.2-3.7,9.3-8.2c2.3-5,2.9-11.2,1.7-17.4c-2.5-12.2-11.8-21-20.2-19.2c-1.6,0.3-3.2,1-4.6,2.1
			c-5.8,4.4-8.4,13.9-6.4,23.5c0.6,2.7-1.2,5.3-3.9,5.9c-2.7,0.6-5.3-1.2-5.9-3.9c-2.8-13.6,1.2-26.7,10.2-33.5
			c2.6-2,5.5-3.3,8.6-3.9c14-2.9,28.4,9.2,32,27c1.7,8.4,0.9,16.8-2.4,23.7c-3.5,7.4-9.3,12.3-16.4,13.8
			C626.1,465.5,624.7,465.7,623.3,465.7z"/>
	</g>
	<g>
		<path class="st4" d="M642,400.6c-1.6,0-3.3-0.8-4.2-2.3c-6.3-9.8-13.9-18.9-22.4-27c-2-1.9-2.1-5.1-0.2-7.1c1.9-2,5.1-2.1,7.1-0.2
			c9.1,8.6,17.1,18.3,23.9,28.8c1.5,2.3,0.8,5.4-1.5,6.9C643.8,400.4,642.9,400.6,642,400.6z"/>
		<path class="st4" d="M618.1,592c-1.3,0-2.7-0.5-3.7-1.6c-1.9-2-1.8-5.2,0.2-7.1c29.4-27.5,46.2-66.2,46.2-106.3
			c0-8.7-0.8-17.5-2.3-26c-0.5-2.7,1.3-5.3,4-5.8c2.7-0.5,5.3,1.3,5.8,4c1.6,9.1,2.5,18.5,2.5,27.8c0,42.9-18,84.3-49.4,113.6
			C620.6,591.6,619.3,592,618.1,592z"/>
		<path class="st4" d="M597.1,608.5c-1.6,0-3.2-0.8-4.2-2.3c-1.5-2.3-0.8-5.4,1.5-6.9c2.6-1.7,5.1-3.4,7.5-5.2c2.2-1.6,5.3-1.2,7,1
			c1.6,2.2,1.2,5.4-1,7c-2.6,1.9-5.3,3.8-8,5.6C598.9,608.2,598,608.5,597.1,608.5z"/>
	</g>
	<path class="st3" d="M520.3,653c-96.8,0-175.6-78.8-175.6-175.6s78.8-175.6,175.6-175.6s175.6,78.8,175.6,175.6
		S617.2,653,520.3,653z M520.3,311.7c-91.3,0-165.6,74.3-165.6,165.6S429,643,520.3,643s165.6-74.3,165.6-165.6
		S611.6,311.7,520.3,311.7z"/>
	<path class="st2" d="M548.8,483.8c0,17.9-14.5,32.4-32.4,32.4c-3.5,0-6.9-0.6-10.1-1.6c13-4.2,22.3-16.4,22.3-30.8
		s-9.4-26.6-22.3-30.8c3.2-1,6.5-1.6,10.1-1.6C534.3,451.4,548.8,466,548.8,483.8z"/>
	<g>
		<path class="st1" d="M444.2,560.7c-1.9,2.4-4.2,4.4-7,5.7c-12.1,5.8-28.1-2.7-35.8-18.9c-7.7-16.2-4.1-33.9,8-39.7
			c1.8-0.9,3.8-1.4,5.7-1.6c11-1.4,23.6,6.8,30.1,20.5C451.2,539.2,450.4,552.6,444.2,560.7z"/>
		<path class="st2" d="M444.2,560.7c-11,1.4-23.6-6.8-30.1-20.5c-5.9-12.5-5.1-25.9,1.1-34c11-1.4,23.6,6.8,30.1,20.5
			C451.2,539.2,450.4,552.6,444.2,560.7z"/>
		<path class="st3" d="M429,573.2c-4.5,0-9.2-1.2-13.7-3.6c-7.7-4.1-14.3-11.1-18.4-19.9s-5.5-18.3-3.8-26.9
			c1.8-9.1,6.9-16,14.2-19.5s15.9-3,24,1.3c7.7,4.1,14.3,11.1,18.4,19.9c1.2,2.5,0.1,5.5-2.4,6.7c-2.5,1.2-5.5,0.1-6.7-2.4
			c-3.2-6.8-8.2-12.3-14.1-15.4c-5.3-2.8-10.7-3.2-15.1-1.1c-4.4,2.1-7.5,6.5-8.7,12.4c-1.3,6.4-0.2,13.8,3,20.6s8.2,12.3,14.1,15.4
			c5.3,2.8,10.7,3.2,15.1,1.1s7.5-6.5,8.7-12.4c0.5-2.7,3.2-4.5,5.9-3.9c2.7,0.5,4.5,3.2,3.9,5.9c-1.8,9.1-6.9,16-14.2,19.5
			C436.1,572.4,432.6,573.2,429,573.2z"/>
	</g>
	<path class="st3" d="M516.4,521.2c-20.6,0-37.4-16.8-37.4-37.4c0-2.8,2.2-5,5-5c2.8,0,5,2.2,5,5c0,15.1,12.3,27.4,27.4,27.4
		c15.1,0,27.4-12.3,27.4-27.4s-12.3-27.4-27.4-27.4c-5,0-9.8,1.3-14.1,3.9c-2.4,1.4-5.4,0.7-6.9-1.7c-1.4-2.4-0.7-5.4,1.7-6.9
		c5.8-3.5,12.4-5.3,19.2-5.3c20.6,0,37.4,16.8,37.4,37.4S537,521.2,516.4,521.2z"/>
	<path class="st3" d="M514.4,401.9c-4.5,0-9-1.7-12.5-5.2c-2-2-2-5.1,0-7.1c2-2,5.1-2,7.1,0c3,3,7.8,3,10.8,0c3-3,3-7.8,0-10.8
		c-3-3-7.8-3-10.8,0c-2,2-5.1,2-7.1,0c-2-2-2-5.1,0-7.1c6.9-6.9,18.1-6.9,25,0c6.9,6.9,6.9,18.1,0,25
		C523.5,400.1,518.9,401.9,514.4,401.9z"/>
	<path class="st3" d="M576.8,582.2c-4.5,0-9-1.7-12.5-5.2c-2-2-2-5.1,0-7.1c2-2,5.1-2,7.1,0c3,3,7.8,3,10.8,0c3-3,3-7.8,0-10.8
		s-7.8-3-10.8,0c-2,2-5.1,2-7.1,0c-2-2-2-5.1,0-7.1c6.9-6.9,18.1-6.9,25,0c6.9,6.9,6.9,18.1,0,25
		C585.8,580.5,581.3,582.2,576.8,582.2z"/>
	<polygon class="st5" points="447.1,356.5 436.4,367.2 406.5,337.3 425,334.3 	"/>
	<path class="st5" d="M436.4,367.2l-29.2,29.2l-29.9-29.9L342.7,332c-1.6-1.6-3.2-3.3-4.6-5.1c-10.1-12.4-15.5-27.9-15.2-44
		c9.2-0.1,18.2,1.6,26.6,4.9c6.3,2.5,12.1,6,17.4,10.3c1.8,1.4,3.5,3,5.1,4.6l34.5,34.5L436.4,367.2z"/>
	<polygon class="st2" points="366.8,298.1 407.2,396.4 338.1,326.9 	"/>
	<polygon class="st5" points="407.2,396.4 396.4,407.1 374.3,385 377.2,366.5 	"/>
	<polygon class="st2" points="407.2,396.4 396.4,407.1 374.3,385 377.2,366.5 	"/>
	<path class="st3" d="M396.4,412.1c-1.3,0-2.6-0.5-3.5-1.5l-22.1-22.1c-1.1-1.1-1.7-2.7-1.4-4.3l2.9-18.5c0.3-1.9,1.6-3.4,3.4-4
		s3.8-0.1,5.1,1.2l29.9,29.9c2,2,2,5.1,0,7.1L400,410.7C399,411.6,397.8,412.1,396.4,412.1C396.4,412.1,396.4,412.1,396.4,412.1z
		 M379.6,383.3l16.8,16.8l3.7-3.7L380.6,377L379.6,383.3z"/>
	<path class="st3" d="M436.4,372.2c-1.3,0-2.6-0.5-3.5-1.5l-29.9-29.9c-1.3-1.3-1.8-3.3-1.2-5.1s2.1-3.1,4-3.4l18.5-2.9
		c1.6-0.3,3.2,0.3,4.3,1.4l22.1,22.1c0.9,0.9,1.5,2.2,1.5,3.5c0,1.3-0.5,2.6-1.5,3.5l-10.7,10.7C439,371.7,437.7,372.2,436.4,372.2z
		 M417,340.7l19.4,19.4l3.7-3.7l-16.8-16.8L417,340.7z"/>
	
		<rect x="401.1" y="376.8" transform="matrix(0.7071 -0.7071 0.7071 0.7071 -146.4334 410.072)" class="st3" width="41.4" height="10"/>
	<g id="XMLID_43_">
		<g>
			<path class="st0" d="M366.8,298.1l-28.8,28.8c-10.1-12.4-15.5-27.9-15.2-44c9.2-0.1,18.2,1.6,26.6,4.9
				C355.7,290.3,361.6,293.8,366.8,298.1z"/>
		</g>
		<g>
			<path class="st3" d="M373.7,370l-34.5-34.5c-1.8-1.8-3.4-3.6-5-5.5c-10.8-13.3-16.7-30.1-16.4-47.2c0-2.7,2.2-4.9,4.9-4.9
				c9.8-0.2,19.4,1.6,28.5,5.3c6.7,2.7,13,6.5,18.7,11.1c1.9,1.5,3.7,3.2,5.5,5l34.5,34.5l-7.1,7.1l-34.5-34.5
				c-1.5-1.5-3.1-3-4.7-4.3c-4.9-4-10.3-7.2-16.1-9.6c-6.3-2.5-12.8-4-19.6-4.5c0.8,13,5.7,25.6,14,35.7c1.3,1.6,2.8,3.2,4.3,4.7
				l34.5,34.5L373.7,370z"/>
			
				<rect x="332.1" y="307.5" transform="matrix(0.7071 -0.7071 0.7071 0.7071 -117.7219 340.7572)" class="st3" width="40.7" height="10"/>
		</g>
	</g>
	<path class="st3" d="M591.8,345.3c-0.8,0-1.7-0.2-2.5-0.7c-2.4-1.4-3.2-4.4-1.8-6.8l21.9-38.1c0,0,0,0,0-0.1c0,0,0,0,0-0.1
		l19.9-34.6c1.4-2.4,4.4-3.2,6.8-1.8l44.2,25.5c1.1,0.7,2,1.8,2.3,3c0.3,1.3,0.2,2.6-0.5,3.8l-20,34.7c-1.4,2.4-4.4,3.2-6.8,1.8
		l-39.9-23l-19.5,33.8C595.2,344.4,593.5,345.3,591.8,345.3z M620.6,300.4l35.5,20.5l15-26l-35.5-20.5L620.6,300.4z"/>
	<g>
		<path class="st6" d="M525.4,229L525.4,229c-3.9,5.1-10.1,8.4-17.1,8.4c-6.9,0-13.1-3.3-17.1-8.3l0,0c-1.5-1.9-2.6-4-3.4-6.3
			c2.9-8.5,11-14.6,20.5-14.6s17.5,6.1,20.5,14.6C528,225.1,526.8,227.2,525.4,229z"/>
		<path class="st7" d="M530,215.7c0,2.5-0.4,4.9-1.2,7.1c-2.9-8.5-11-14.6-20.5-14.6s-17.5,6.1-20.5,14.6c-0.8-2.2-1.2-4.6-1.2-7.1
			c0-12,9.7-21.7,21.7-21.7C520.3,194,530,203.7,530,215.7z"/>
		<path class="st7" d="M491.3,229.1c4,5.1,10.1,8.3,17.1,8.3c6.9,0,13.1-3.3,17.1-8.3c16.4,11.4,9.7,56.8,9.7,56.8
			c-2.1,0.4-4.1,0.8-6.2,1.1h0c-2.9,0.5-5.9,0.8-8.8,1.1c-3.5,0.3-6.9,0.5-10.4,0.5c-0.4,0-0.8,0-1.3,0c-0.4,0-0.9,0-1.3,0
			c-3.5,0-6.9-0.2-10.4-0.5c-3-0.3-5.9-0.6-8.9-1.1c-2.1-0.3-4.2-0.7-6.2-1.1C481.6,285.8,474.9,240.4,491.3,229.1z"/>
		<path class="st3" d="M528.9,232.6l-2.1-2.1l-1.8-1.7l0.4,0.4l-4.2-2.7l0.3-0.4l0,0c1.1-1.5,2-3.1,2.6-4.8c0.6-1.8,0.9-3.6,0.9-5.5
			c0-9.2-7.5-16.7-16.7-16.7c-9.2,0-16.7,7.5-16.7,16.7c0,1.9,0.3,3.7,0.9,5.5c0.6,1.7,1.5,3.4,2.6,4.8l-7.9,6.2
			c-1.8-2.3-3.2-4.9-4.2-7.7c-1-2.8-1.5-5.7-1.5-8.7c0-14.7,12-26.7,26.7-26.7c14.7,0,26.7,12,26.7,26.7c0,3-0.5,6-1.5,8.8
			c-0.9,2.7-2.3,5.3-4.2,7.6C529.2,232.2,529.1,232.4,528.9,232.6L528.9,232.6C529,232.5,528.9,232.5,528.9,232.6z M521.7,225.6
			L521.7,225.6L521.7,225.6z"/>
		<path class="st3" d="M492.6,224.4l-9.4-3.3c3.7-10.7,13.8-17.9,25.2-17.9c11.4,0,21.5,7.2,25.2,18l-9.5,3.3
			c-2.3-6.7-8.6-11.2-15.7-11.2C501.2,213.2,494.9,217.7,492.6,224.4z"/>
		<path class="st3" d="M508.3,293.5h-1.3c-3.5,0-7.1-0.2-10.8-0.5c-3.2-0.3-6.3-0.7-9.2-1.1c-2.1-0.3-4.3-0.7-6.5-1.2
			c-2.1-0.4-3.6-2.1-3.9-4.2c-0.7-5-6.6-48.8,11.7-61.6c2.2-1.5,5.2-1.1,6.8,1c3.2,4.1,8,6.4,13.1,6.4s10-2.3,13.1-6.4
			c1.6-2.1,4.6-2.5,6.8-1c18.4,12.8,12.5,56.6,11.7,61.6c-0.3,2.1-1.9,3.7-3.9,4.2c-2.3,0.5-4.4,0.9-6.5,1.2c0,0-0.1,0-0.1,0
			c-2.9,0.5-6,0.8-9.1,1.1c-3.7,0.3-7.4,0.5-10.8,0.5L508.3,293.5L508.3,293.5z M486.1,281.6c0.8,0.1,1.7,0.3,2.5,0.4
			c2.8,0.4,5.6,0.8,8.5,1.1c3.4,0.3,6.8,0.5,10,0.5h2.5c3.1,0,6.5-0.2,10-0.5c2.9-0.3,5.8-0.6,8.5-1.1c0,0,0.1,0,0.1,0
			c0.8-0.1,1.6-0.3,2.4-0.4c1.7-14.7,1.5-36.2-5.1-45.4c-4.8,4-10.8,6.2-17.2,6.2s-12.4-2.2-17.2-6.2
			C484.6,245.4,484.4,266.9,486.1,281.6z"/>
		<path class="st3" d="M491.9,323.4c-1.9,0-3.8-1.1-4.6-3c-7-16.1-4.5-33.5-4.4-34.2c0.4-2.7,2.9-4.6,5.7-4.2
			c2.7,0.4,4.6,2.9,4.2,5.7c0,0.3-2.1,15.4,3.7,28.8c1.1,2.5-0.1,5.5-2.6,6.6C493.2,323.3,492.5,323.4,491.9,323.4z"/>
		<path class="st3" d="M524.8,323.4c-0.7,0-1.3-0.1-2-0.4c-2.5-1.1-3.7-4-2.6-6.6c5.8-13.4,3.7-28.6,3.7-28.8
			c-0.4-2.7,1.5-5.3,4.2-5.7c2.7-0.4,5.3,1.5,5.7,4.2c0.1,0.7,2.6,18.1-4.4,34.2C528.5,322.3,526.7,323.4,524.8,323.4z"/>
		<path class="st3" d="M461.8,268.5c-0.3,0-0.7,0-1-0.1c-2.7-0.6-4.5-3.2-3.9-5.9c7-34.3,30.2-35.9,31.2-35.9c2.8-0.1,5.1,2,5.2,4.7
			c0.1,2.7-2,5.1-4.7,5.2c-0.8,0.1-16.6,1.7-22,27.9C466.2,266.9,464.1,268.5,461.8,268.5z"/>
		<path class="st3" d="M556.3,268.5c-2.3,0-4.4-1.6-4.9-4c-5.4-26.4-21.3-27.9-22-27.9c-2.8-0.1-4.9-2.5-4.7-5.2
			c0.1-2.8,2.5-4.9,5.3-4.7c1,0,24.2,1.6,31.2,35.9c0.6,2.7-1.2,5.3-3.9,5.9C556.9,268.5,556.6,268.5,556.3,268.5z"/>
		<path class="st4" d="M516.2,227.1c-0.3,0-0.7,0-1-0.1c-0.3-0.1-0.6-0.2-0.9-0.3c-0.3-0.1-0.6-0.3-0.9-0.5
			c-0.3-0.2-0.5-0.4-0.8-0.6c-0.9-0.9-1.5-2.2-1.5-3.5c0-0.3,0-0.7,0.1-1c0.1-0.3,0.2-0.6,0.3-0.9c0.1-0.3,0.3-0.6,0.5-0.9
			c0.2-0.3,0.4-0.5,0.6-0.8c0.2-0.2,0.5-0.4,0.8-0.6c0.3-0.2,0.6-0.3,0.9-0.5c0.3-0.1,0.6-0.2,0.9-0.3c1.6-0.3,3.4,0.2,4.5,1.4
			c0.2,0.2,0.4,0.5,0.6,0.8c0.2,0.3,0.3,0.6,0.5,0.9c0.1,0.3,0.2,0.6,0.3,0.9c0.1,0.3,0.1,0.7,0.1,1c0,0.3,0,0.7-0.1,1
			c-0.1,0.3-0.2,0.6-0.3,0.9c-0.1,0.3-0.3,0.6-0.5,0.9c-0.2,0.3-0.4,0.5-0.6,0.8c-0.2,0.2-0.5,0.4-0.8,0.6c-0.3,0.2-0.6,0.3-0.9,0.5
			c-0.3,0.1-0.6,0.2-0.9,0.3C516.9,227,516.5,227.1,516.2,227.1z"/>
		<path class="st4" d="M522.6,280.1c-0.2,0-0.3,0-0.5,0c-2.7-0.3-4.8-2.7-4.5-5.4c1.6-16.7-0.9-27.6-0.9-27.8
			c-0.6-2.7,1.1-5.4,3.8-6c2.7-0.6,5.4,1.1,6,3.8c0.1,0.5,2.8,12.7,1.1,30.9C527.3,278.1,525.1,280.1,522.6,280.1z"/>
	</g>
	<g>
		<path class="st1" d="M712.5,262.2c-2.8,0-5-2.2-5-5v-21.4c0-2.8,2.2-5,5-5s5,2.2,5,5v21.4C717.5,259.9,715.2,262.2,712.5,262.2z"
			/>
		<path class="st1" d="M723.2,251.5h-21.4c-2.8,0-5-2.2-5-5s2.2-5,5-5h21.4c2.8,0,5,2.2,5,5S726,251.5,723.2,251.5z"/>
	</g>
	<g>
		<path class="st1" d="M323.5,568.2c-2.8,0-5-2.2-5-5v-21.4c0-2.8,2.2-5,5-5c2.8,0,5,2.2,5,5v21.4
			C328.5,565.9,326.2,568.2,323.5,568.2z"/>
		<path class="st1" d="M334.2,557.5h-21.4c-2.8,0-5-2.2-5-5s2.2-5,5-5h21.4c2.8,0,5,2.2,5,5S337,557.5,334.2,557.5z"/>
	</g>
	<g>
		<path class="st1" d="M236.5,467.2c-2.8,0-5-2.2-5-5v-21.4c0-2.8,2.2-5,5-5c2.8,0,5,2.2,5,5v21.4
			C241.5,464.9,239.2,467.2,236.5,467.2z"/>
		<path class="st1" d="M247.2,456.5h-21.4c-2.8,0-5-2.2-5-5s2.2-5,5-5h21.4c2.8,0,5,2.2,5,5S250,456.5,247.2,456.5z"/>
	</g>
	<g>
		<path class="st1" d="M119.5,286.2c-2.8,0-5-2.2-5-5v-21.4c0-2.8,2.2-5,5-5s5,2.2,5,5v21.4C124.5,283.9,122.2,286.2,119.5,286.2z"
			/>
		<path class="st1" d="M130.2,275.5h-21.4c-2.8,0-5-2.2-5-5s2.2-5,5-5h21.4c2.8,0,5,2.2,5,5S133,275.5,130.2,275.5z"/>
	</g>
	<g>
		<path class="st1" d="M1.5,599.2c-2.8,0-5-2.2-5-5v-21.4c0-2.8,2.2-5,5-5s5,2.2,5,5v21.4C6.5,596.9,4.2,599.2,1.5,599.2z"/>
		<path class="st1" d="M12.2,588.5H-9.2c-2.8,0-5-2.2-5-5s2.2-5,5-5h21.4c2.8,0,5,2.2,5,5S15,588.5,12.2,588.5z"/>
	</g>
	<g>
		<path class="st1" d="M93.5,461.2c-2.8,0-5-2.2-5-5v-21.4c0-2.8,2.2-5,5-5s5,2.2,5,5v21.4C98.5,458.9,96.2,461.2,93.5,461.2z"/>
		<path class="st1" d="M104.2,450.5H82.8c-2.8,0-5-2.2-5-5s2.2-5,5-5h21.4c2.8,0,5,2.2,5,5S107,450.5,104.2,450.5z"/>
	</g>
	<g>
		<path class="st1" d="M-92.5,359.2c-2.8,0-5-2.2-5-5v-21.4c0-2.8,2.2-5,5-5s5,2.2,5,5v21.4C-87.5,356.9-89.8,359.2-92.5,359.2z"/>
		<path class="st1" d="M-81.8,348.5h-21.4c-2.8,0-5-2.2-5-5s2.2-5,5-5h21.4c2.8,0,5,2.2,5,5S-79,348.5-81.8,348.5z"/>
	</g>
	<g>
		<path class="st1" d="M318.5,183.2c-2.8,0-5-2.2-5-5v-21.4c0-2.8,2.2-5,5-5c2.8,0,5,2.2,5,5v21.4
			C323.5,180.9,321.2,183.2,318.5,183.2z"/>
		<path class="st1" d="M329.2,172.5h-21.4c-2.8,0-5-2.2-5-5s2.2-5,5-5h21.4c2.8,0,5,2.2,5,5S332,172.5,329.2,172.5z"/>
	</g>
	<g>
		<path class="st1" d="M704.5,118.2c-2.8,0-5-2.2-5-5V91.7c0-2.8,2.2-5,5-5s5,2.2,5,5v21.4C709.5,115.9,707.2,118.2,704.5,118.2z"/>
		<path class="st1" d="M715.2,107.5h-21.4c-2.8,0-5-2.2-5-5s2.2-5,5-5h21.4c2.8,0,5,2.2,5,5S718,107.5,715.2,107.5z"/>
	</g>
	<g>
		<path class="st1" d="M0.5,161.2c-2.8,0-5-2.2-5-5v-21.4c0-2.8,2.2-5,5-5s5,2.2,5,5v21.4C5.5,158.9,3.2,161.2,0.5,161.2z"/>
		<path class="st1" d="M11.2,150.5h-21.4c-2.8,0-5-2.2-5-5s2.2-5,5-5h21.4c2.8,0,5,2.2,5,5S14,150.5,11.2,150.5z"/>
	</g>
	<g>
		<path class="st1" d="M170.5,713.2c-2.8,0-5-2.2-5-5v-21.4c0-2.8,2.2-5,5-5c2.8,0,5,2.2,5,5v21.4
			C175.5,710.9,173.2,713.2,170.5,713.2z"/>
		<path class="st1" d="M181.2,702.5h-21.4c-2.8,0-5-2.2-5-5s2.2-5,5-5h21.4c2.8,0,5,2.2,5,5S184,702.5,181.2,702.5z"/>
	</g>
	<g>
		<path class="st1" d="M-99.5,683.2c-2.8,0-5-2.2-5-5v-21.4c0-2.8,2.2-5,5-5s5,2.2,5,5v21.4C-94.5,680.9-96.8,683.2-99.5,683.2z"/>
		<path class="st1" d="M-88.8,672.5h-21.4c-2.8,0-5-2.2-5-5s2.2-5,5-5h21.4c2.8,0,5,2.2,5,5S-86,672.5-88.8,672.5z"/>
	</g>
</g>
</svg>
